<svg width="251" height="250" viewBox="0 0 251 250" fill="none" xmlns="http://www.w3.org/2000/svg">
    <path
        d="M48.4264 222V208H50.9864L57.5664 217.86V208H60.1264V222H57.5664L50.9864 212.16V222H48.4264ZM67.5405 222.24C66.5805 222.24 65.7138 222.02 64.9405 221.58C64.1805 221.14 63.5738 220.533 63.1205 219.76C62.6805 218.973 62.4605 218.067 62.4605 217.04C62.4605 216.013 62.6871 215.113 63.1405 214.34C63.5938 213.553 64.2005 212.94 64.9605 212.5C65.7338 212.06 66.6005 211.84 67.5605 211.84C68.5071 211.84 69.3605 212.06 70.1205 212.5C70.8938 212.94 71.5005 213.553 71.9405 214.34C72.3938 215.113 72.6205 216.013 72.6205 217.04C72.6205 218.067 72.3938 218.973 71.9405 219.76C71.5005 220.533 70.8938 221.14 70.1205 221.58C69.3471 222.02 68.4871 222.24 67.5405 222.24ZM67.5405 220.02C68.2071 220.02 68.7871 219.773 69.2805 219.28C69.7738 218.773 70.0205 218.027 70.0205 217.04C70.0205 216.053 69.7738 215.313 69.2805 214.82C68.7871 214.313 68.2138 214.06 67.5605 214.06C66.8805 214.06 66.2938 214.313 65.8005 214.82C65.3205 215.313 65.0805 216.053 65.0805 217.04C65.0805 218.027 65.3205 218.773 65.8005 219.28C66.2938 219.773 66.8738 220.02 67.5405 220.02ZM79.675 222V212.08H81.955L82.195 213.94C82.555 213.3 83.0417 212.793 83.655 212.42C84.2817 212.033 85.015 211.84 85.855 211.84V214.54H85.135C84.575 214.54 84.075 214.627 83.635 214.8C83.195 214.973 82.8483 215.273 82.595 215.7C82.355 216.127 82.235 216.72 82.235 217.48V222H79.675ZM92.2489 222.24C91.2489 222.24 90.3622 222.027 89.5889 221.6C88.8156 221.173 88.2089 220.573 87.7689 219.8C87.3289 219.027 87.1089 218.133 87.1089 217.12C87.1089 216.093 87.3222 215.18 87.7489 214.38C88.1889 213.58 88.7889 212.96 89.5489 212.52C90.3222 212.067 91.2289 211.84 92.2689 211.84C93.2422 211.84 94.1022 212.053 94.8489 212.48C95.5956 212.907 96.1756 213.493 96.5889 214.24C97.0156 214.973 97.2289 215.793 97.2289 216.7C97.2289 216.847 97.2222 217 97.2089 217.16C97.2089 217.32 97.2022 217.487 97.1889 217.66H89.6489C89.7022 218.433 89.9689 219.04 90.4489 219.48C90.9422 219.92 91.5356 220.14 92.2289 220.14C92.7489 220.14 93.1822 220.027 93.5289 219.8C93.8889 219.56 94.1556 219.253 94.3289 218.88H96.9289C96.7422 219.507 96.4289 220.08 95.9889 220.6C95.5622 221.107 95.0289 221.507 94.3889 221.8C93.7622 222.093 93.0489 222.24 92.2489 222.24ZM92.2689 213.92C91.6422 213.92 91.0889 214.1 90.6089 214.46C90.1289 214.807 89.8222 215.34 89.6889 216.06H94.6289C94.5889 215.407 94.3489 214.887 93.9089 214.5C93.4689 214.113 92.9222 213.92 92.2689 213.92ZM103.482 222.24C102.602 222.24 101.829 222.1 101.162 221.82C100.495 221.527 99.962 221.127 99.562 220.62C99.162 220.113 98.922 219.527 98.842 218.86H101.422C101.502 219.247 101.715 219.58 102.062 219.86C102.422 220.127 102.882 220.26 103.442 220.26C104.002 220.26 104.409 220.147 104.662 219.92C104.929 219.693 105.062 219.433 105.062 219.14C105.062 218.713 104.875 218.427 104.502 218.28C104.129 218.12 103.609 217.967 102.942 217.82C102.515 217.727 102.082 217.613 101.642 217.48C101.202 217.347 100.795 217.18 100.422 216.98C100.062 216.767 99.7687 216.5 99.542 216.18C99.3154 215.847 99.202 215.44 99.202 214.96C99.202 214.08 99.5487 213.34 100.242 212.74C100.949 212.14 101.935 211.84 103.202 211.84C104.375 211.84 105.309 212.113 106.002 212.66C106.709 213.207 107.129 213.96 107.262 214.92H104.842C104.695 214.187 104.142 213.82 103.182 213.82C102.702 213.82 102.329 213.913 102.062 214.1C101.809 214.287 101.682 214.52 101.682 214.8C101.682 215.093 101.875 215.327 102.262 215.5C102.649 215.673 103.162 215.833 103.802 215.98C104.495 216.14 105.129 216.32 105.702 216.52C106.289 216.707 106.755 216.993 107.102 217.38C107.449 217.753 107.622 218.293 107.622 219C107.635 219.613 107.475 220.167 107.142 220.66C106.809 221.153 106.329 221.54 105.702 221.82C105.075 222.1 104.335 222.24 103.482 222.24ZM113.61 222.24C112.37 222.24 111.41 221.853 110.73 221.08C110.063 220.307 109.73 219.173 109.73 217.68V212.08H112.27V217.44C112.27 218.293 112.443 218.947 112.79 219.4C113.137 219.853 113.683 220.08 114.43 220.08C115.137 220.08 115.717 219.827 116.17 219.32C116.637 218.813 116.87 218.107 116.87 217.2V212.08H119.43V222H117.17L116.97 220.32C116.663 220.907 116.217 221.373 115.63 221.72C115.057 222.067 114.383 222.24 113.61 222.24ZM122.058 222V207.6H124.618V222H122.058ZM131.654 222C130.614 222 129.78 221.747 129.154 221.24C128.527 220.733 128.214 219.833 128.214 218.54V214.22H126.514V212.08H128.214L128.514 209.42H130.774V212.08H133.454V214.22H130.774V218.56C130.774 219.04 130.874 219.373 131.074 219.56C131.287 219.733 131.647 219.82 132.154 219.82H133.394V222H131.654ZM139.752 222.24C138.872 222.24 138.098 222.1 137.432 221.82C136.765 221.527 136.232 221.127 135.832 220.62C135.432 220.113 135.192 219.527 135.112 218.86H137.692C137.772 219.247 137.985 219.58 138.332 219.86C138.692 220.127 139.152 220.26 139.712 220.26C140.272 220.26 140.678 220.147 140.932 219.92C141.198 219.693 141.332 219.433 141.332 219.14C141.332 218.713 141.145 218.427 140.772 218.28C140.398 218.12 139.878 217.967 139.212 217.82C138.785 217.727 138.352 217.613 137.912 217.48C137.472 217.347 137.065 217.18 136.692 216.98C136.332 216.767 136.038 216.5 135.812 216.18C135.585 215.847 135.472 215.44 135.472 214.96C135.472 214.08 135.818 213.34 136.512 212.74C137.218 212.14 138.205 211.84 139.472 211.84C140.645 211.84 141.578 212.113 142.272 212.66C142.978 213.207 143.398 213.96 143.532 214.92H141.112C140.965 214.187 140.412 213.82 139.452 213.82C138.972 213.82 138.598 213.913 138.332 214.1C138.078 214.287 137.952 214.52 137.952 214.8C137.952 215.093 138.145 215.327 138.532 215.5C138.918 215.673 139.432 215.833 140.072 215.98C140.765 216.14 141.398 216.32 141.972 216.52C142.558 216.707 143.025 216.993 143.372 217.38C143.718 217.753 143.892 218.293 143.892 219C143.905 219.613 143.745 220.167 143.412 220.66C143.078 221.153 142.598 221.54 141.972 221.82C141.345 222.1 140.605 222.24 139.752 222.24ZM151.385 222V214.22H150.025V212.08H151.385V210.92C151.385 209.72 151.685 208.867 152.285 208.36C152.898 207.853 153.725 207.6 154.765 207.6H155.865V209.78H155.165C154.725 209.78 154.412 209.867 154.225 210.04C154.038 210.213 153.945 210.507 153.945 210.92V212.08H156.085V214.22H153.945V222H151.385ZM162.482 222.24C161.522 222.24 160.655 222.02 159.882 221.58C159.122 221.14 158.515 220.533 158.062 219.76C157.622 218.973 157.402 218.067 157.402 217.04C157.402 216.013 157.629 215.113 158.082 214.34C158.535 213.553 159.142 212.94 159.902 212.5C160.675 212.06 161.542 211.84 162.502 211.84C163.449 211.84 164.302 212.06 165.062 212.5C165.835 212.94 166.442 213.553 166.882 214.34C167.335 215.113 167.562 216.013 167.562 217.04C167.562 218.067 167.335 218.973 166.882 219.76C166.442 220.533 165.835 221.14 165.062 221.58C164.289 222.02 163.429 222.24 162.482 222.24ZM162.482 220.02C163.149 220.02 163.729 219.773 164.222 219.28C164.715 218.773 164.962 218.027 164.962 217.04C164.962 216.053 164.715 215.313 164.222 214.82C163.729 214.313 163.155 214.06 162.502 214.06C161.822 214.06 161.235 214.313 160.742 214.82C160.262 215.313 160.022 216.053 160.022 217.04C160.022 218.027 160.262 218.773 160.742 219.28C161.235 219.773 161.815 220.02 162.482 220.02ZM173.571 222.24C172.331 222.24 171.371 221.853 170.691 221.08C170.024 220.307 169.691 219.173 169.691 217.68V212.08H172.231V217.44C172.231 218.293 172.404 218.947 172.751 219.4C173.097 219.853 173.644 220.08 174.391 220.08C175.097 220.08 175.677 219.827 176.131 219.32C176.597 218.813 176.831 218.107 176.831 217.2V212.08H179.391V222H177.131L176.931 220.32C176.624 220.907 176.177 221.373 175.591 221.72C175.017 222.067 174.344 222.24 173.571 222.24ZM182.019 222V212.08H184.279L184.479 213.76C184.785 213.173 185.225 212.707 185.799 212.36C186.385 212.013 187.072 211.84 187.859 211.84C189.085 211.84 190.039 212.227 190.719 213C191.399 213.773 191.739 214.907 191.739 216.4V222H189.179V216.64C189.179 215.787 189.005 215.133 188.659 214.68C188.312 214.227 187.772 214 187.039 214C186.319 214 185.725 214.253 185.259 214.76C184.805 215.267 184.579 215.973 184.579 216.88V222H182.019ZM198.747 222.24C197.813 222.24 196.98 222.013 196.247 221.56C195.513 221.107 194.933 220.487 194.507 219.7C194.08 218.913 193.867 218.02 193.867 217.02C193.867 216.02 194.08 215.133 194.507 214.36C194.933 213.573 195.513 212.96 196.247 212.52C196.98 212.067 197.813 211.84 198.747 211.84C199.493 211.84 200.147 211.98 200.707 212.26C201.267 212.54 201.72 212.933 202.067 213.44V207.6H204.627V222H202.347L202.067 220.58C201.747 221.02 201.32 221.407 200.787 221.74C200.267 222.073 199.587 222.24 198.747 222.24ZM199.287 220C200.113 220 200.787 219.727 201.307 219.18C201.84 218.62 202.107 217.907 202.107 217.04C202.107 216.173 201.84 215.467 201.307 214.92C200.787 214.36 200.113 214.08 199.287 214.08C198.473 214.08 197.8 214.353 197.267 214.9C196.733 215.447 196.467 216.153 196.467 217.02C196.467 217.887 196.733 218.6 197.267 219.16C197.8 219.72 198.473 220 199.287 220Z"
        fill="black" />
    <rect x="68" width="71" height="93" rx="16" fill="black" />
    <rect x="78" y="12" width="21" height="21" rx="6" fill="white" />
    <path d="M81 48H126" stroke="white" stroke-width="5" stroke-linecap="square" />
    <path d="M81 63H126" stroke="white" stroke-width="5" stroke-linecap="square" />
    <path d="M81 78H109" stroke="white" stroke-width="5" stroke-linecap="square" />
    <circle cx="149.926" cy="93.9258" r="23.8135" transform="rotate(28.6511 149.926 93.9258)"
        stroke="#919191" stroke-width="6" />
    <circle cx="149.926" cy="93.9258" r="22" transform="rotate(28.6511 149.926 93.9258)"
        fill="black" stroke="white" stroke-width="6" />
    <path d="M133.716 122L118.373 150.082" stroke="black" stroke-width="15" stroke-linecap="round" />
    <path d="M155.473 88.3179L145.219 99.0661" stroke="white" stroke-width="5"
        stroke-linecap="round" />
    <path d="M144.972 88.5649L155.721 98.8186" stroke="white" stroke-width="5"
        stroke-linecap="round" />
</svg>
    